# xmcd
#
# Track frame offsets:
#	182
#	23082
#	42415
#	60712
#	87517
#	119550
#	137222
#	164022
#	189417
#	208350
#	226935
#
# Disc length: 3382 seconds
#
# Revision: 1
# Processed by: cddbd v1.4b42PL1 Copyright (c) Steve Scherf et al.
# Submitted via: audiograbber 1.80
#
DISCID=a30d340b
DTITLE=Sambodhi Prem - Rose Water Moon
DYEAR=1900
DGENRE=
TTITLE0=Rose Water Moon
TTITLE1=Into the Heartland
TTITLE2=A Space Without Clouds
TTITLE3=Valley of the White Horse
TTITLE4=The Watercourse Way
TTITLE5=Pink Rose of Autumn
TTITLE6=Splashing in Waterfalls
TTITLE7=Midnight Tree
TTITLE8=1000 Faces of a Diamond
TTITLE9=Full Moon Dance
TTITLE10=Ecstatic Meeting
EXTD=
EXTT0=
EXTT1=
EXTT2=
EXTT3=
EXTT4=
EXTT5=
EXTT6=
EXTT7=
EXTT8=
EXTT9=
EXTT10=
PLAYORDER=
